<svg width="771" height="752" viewBox="0 0 771 752" fill="none" xmlns="http://www.w3.org/2000/svg">
<rect y="627" width="125" height="125" fill="black"/>
<rect y="627" width="125" height="125" fill="black"/>
<rect x="215" y="627" width="125" height="125" fill="black"/>
<rect x="431" y="627" width="125" height="125" fill="black"/>
<rect x="646" y="627" width="125" height="125" fill="black"/>
<rect width="125" height="124" fill="black"/>
<rect width="125" height="124" fill="black"/>
<rect x="215" width="125" height="124" fill="#ADA8A8"/>
<rect x="431" width="125" height="124" fill="black"/>
<rect x="646" width="125" height="124" fill="black"/>
<rect y="209" width="125" height="124" fill="black"/>
<rect y="209" width="125" height="124" fill="#8A8A8A"/>
<rect x="215" y="209" width="125" height="124" fill="white"/>
<rect x="431" y="209" width="125" height="124" fill="#919191"/>
<rect x="646" y="209" width="125" height="124" fill="black"/>
<rect y="417" width="125" height="126" fill="black"/>
<rect y="417" width="125" height="126" fill="black"/>
<rect x="215" y="417" width="125" height="126" fill="#8A8A8A"/>
<rect x="431" y="417" width="125" height="126" fill="black"/>
<rect x="646" y="417" width="125" height="126" fill="black"/>
</svg>
